# xmcd
#
# Track frame offsets:
#	200
#	16552
#	28160
#	46700
#	63827
#	82277
#	95587
#	111740
#	129950
#
# Disc length: 1951
#
# Revision: 3
# Processed by: cddbd v1.5.1PL0 Copyright (c) Steve Scherf et al.
# Submitted via: ExactAudioCopy v0.90b4
# Normalized: r2:DSETVAR1
#
DISCID=6f079d09
DTITLE=Various Artist - Honky Tonk Country - Country Rockers
DYEAR=1992
DGENRE=Country
TTITLE0=The Charlie Daniels Band - Devil Went Down To Georgia
TTITLE1=Steve Earle - Guitar Town
TTITLE2=The Outlaws - Hurry Sundown
TTITLE3=Lynyrd Skynyrd - You Got That Right
TTITLE4=The Allman Brothers Band - Statesboro Blues
TTITLE5=Hank Williams, Jr. - All My Rowdy Friends Are Coming Over Tonight
TTITLE6=Ricky Skaggs - Lovin' Only Me
TTITLE7=Chet Atkins and Mark Knopfler - Poor Boy Blues
TTITLE8=Steve Wariner - Nothin' In The World (Gonna Keep Me From You)
EXTD=
EXTT0=The Charlie Daniels Band\n
EXTT1=Steve Earle\n
EXTT2=The Outlaws\n
EXTT3=Lynyrd Skynyrd\n
EXTT4=The Allman Brothers Band\n
EXTT5=Hank William Jr.\n
EXTT6=Ricky Scaggs\n
EXTT7=Chet Atkins And Mark Knopfler\n
EXTT8=Steve Wariner\n
PLAYORDER=
